<svg width="249" height="80" viewBox="0 0 249 80" fill="none" xmlns="http://www.w3.org/2000/svg">
<path d="M2.68124 21.6954H20.9082V16.692H2.68124V21.6954ZM34.4398 63.4508H40.0389L28.4237 18.1215H22.8841L34.4398 63.4508ZM44.0023 66.9651H72.0573V61.8425H44.0023V66.9651ZM89.2397 67.2032L93.3499 63.0936C87.0954 58.1495 82.5688 50.8229 82.5688 40.4585C82.5688 30.0942 87.0954 22.8272 93.3499 17.8237L89.2397 13.7137C82.211 18.9554 76.5525 27.9498 76.5525 40.4585C76.5525 52.9672 82.211 61.9616 89.2397 67.2032ZM121.532 15.6794L116.946 17.228C118.435 20.3255 121.83 29.5581 122.782 32.9533L127.429 31.3451C126.416 28.0094 122.842 18.5385 121.532 15.6794ZM147.979 19.4915L142.499 17.9428C141.308 26.8777 137.674 36.4081 132.968 42.4242C126.952 50.0485 118.077 55.7668 109.559 58.2686L113.669 62.4382C122.068 59.4599 130.884 53.3246 137.019 45.2237C141.903 38.7907 145.119 30.2729 146.906 22.8867C147.145 21.9337 147.562 20.5041 147.979 19.4915ZM104.913 19.2533L100.207 20.9806C101.637 23.542 105.747 33.6085 106.879 37.3016L111.584 35.5742C110.214 31.7024 106.462 22.5889 104.913 19.2533ZM158.998 67.2032C166.087 61.9616 171.686 52.9672 171.686 40.4585C171.686 27.9498 166.087 18.9554 158.998 13.7137L154.888 17.8237C161.203 22.8272 165.67 30.0942 165.67 40.4585C165.67 50.8229 161.203 58.1495 154.888 63.0936L158.998 67.2032ZM176.161 66.9651H204.216V61.8425H176.161V66.9651ZM208.294 63.4508H213.893L225.27 18.1215H219.79L208.294 63.4508ZM229.653 21.6954H247.88V16.692H229.653V21.6954Z" fill="#ED1164"/>
</svg>
